<?xml version="1.0" encoding="utf-8"?><!-- Generator: Adobe Illustrator 18.1.1, SVG Export Plug-In . SVG Version: 6.00 Build 0)  --><svg version="1.1" xmlns="http://www.w3.org/2000/svg" xmlns:xlink="http://www.w3.org/1999/xlink" x="0px" y="0px" viewBox="0 0 300 363" enable-background="new 0 0 300 363" xml:space="preserve"><g id="Ellipse_1_1_" enable-background="new    "><g id="Ellipse_1"><g><circle fill="#FDFDFD" cx="150" cy="213" r="150"></circle></g></g></g><g id="Shape_1_1_" enable-background="new    "><g id="Shape_1"><g><path fill="#1ABC9C" d="M78,272v0.5c48,57.6,101,55.7,145,0V272H78z"></path></g></g></g><g id="_x21_"><g><path fill="#FFFFFF" d="M145.5,2.7c-0.1-1.4,0.6-2.4,1.9-2.4h4.7c1.3,0,2.1,1.1,1.9,2.4l-2.1,18c-0.1,1.3-1,2.1-2.2,2.1
			s-2.1-0.8-2.2-2.1L145.5,2.7z M149.8,26c2.4,0,4.2,1.8,4.2,4.1v0.1c0,2.3-1.8,4.1-4.2,4.1c-2.4,0-4.2-1.8-4.2-4.1v-0.1
			C145.6,27.8,147.4,26,149.8,26z"></path></g></g></svg>